<svg xmlns="http://www.w3.org/2000/svg" viewBox="0 0 35 49" fill="none" aria-hidden="true">
  <path d="M20.8964 3.6019L20.8622 3.64534C19.0562 5.8463 17.9172 8.53957 17.5683 11.432V11.4464L17.4931 11.5659L17.4178 11.4464V11.432C17.0656 8.53957 15.9266 5.8463 14.124 3.64534L14.0898 3.6019L17.4931 0L20.8964 3.6019Z" fill="#161514"/>
  <path d="M17.484 29.867C17.484 29.867 17.4943 29.896 17.4977 29.9141C17.4977 29.9141 17.508 29.8851 17.5114 29.867C18.2536 25.1248 21.7697 21.3745 26.2367 20.5455L29.3048 12.205C23.2473 12.205 17.8534 17.3563 17.4977 24.0135C17.1454 17.3527 11.7481 12.205 5.69059 12.205L8.75865 20.5455C13.2256 21.3745 16.7418 25.1248 17.484 29.867Z" fill="#161514"/>
  <path d="M18.364 38.9286C19.1917 35.8154 21.904 33.6398 24.9618 33.6398C25.4886 33.6398 26.2992 33.7339 27.1406 34.0235L34.9835 25.7301L34.8193 25.6323C32.9929 24.5536 31.1219 24.0323 29.1005 24.0323C23.409 24.0323 18.5076 28.4161 17.4918 34.1067C16.4759 28.4197 11.5745 24.0323 5.88303 24.0323C3.86159 24.0323 1.98724 24.5572 0.164181 25.6323L0 25.7301L7.83948 34.0271C8.84165 33.6434 9.48468 33.6398 10.0251 33.6398C13.0829 33.6398 15.7987 35.8154 16.623 38.9286L16.7085 39.2471C16.8077 39.7033 16.8658 40.1702 16.8795 40.63V41.3214C16.688 44.869 14.1193 47.7252 10.7742 48.1053L10.7092 48.1125L9.86434 49.0067H25.1329L24.288 48.1125L24.223 48.1053C20.8745 47.7252 18.3058 44.869 18.1177 41.3214V40.63C18.1314 40.1666 18.1895 39.7033 18.2887 39.2471L18.3742 38.9286H18.364Z" fill="#161514"/>
</svg>
